<mxfile host="app.diagrams.net" modified="2024-03-26T12:29:53.629Z" agent="Mozilla/5.0 (Macintosh; Intel Mac OS X 10_15_7) AppleWebKit/537.36 (KHTML, like Gecko) Chrome/123.0.0.0 Safari/537.36 Edg/123.0.0.0" version="24.1.0" etag="P6PGnbagP459aVdlvCgu" type="github">
  <diagram name="第 1 页" id="inix2XBkUVZCQFRwNNF-">
    <mxGraphModel>
      <root>
        <mxCell id="0" />
        <mxCell id="1" parent="0" />
      </root>
    </mxGraphModel>
  </diagram>
</mxfile>
